<svg width="144" height="48" viewBox="0 0 144 48" fill="none" xmlns="http://www.w3.org/2000/svg">
  <rect x="1" y="1" width="46" height="46" rx="10" fill="#132337" stroke="#243D57" stroke-width="2"/>
  <path d="M15 16.5C18 13.5 22.4 12 27.2 12C31.1 12 34.6 12.9 37.6 14.8L34.4 20.1C32.5 18.7 29.9 17.8 27.3 17.8C23.1 17.8 20 20.5 20 24.1C20 27.6 23.1 30.3 27.3 30.3C29.9 30.3 32.5 29.4 34.4 28L37.6 33.3C34.6 35.2 31.1 36.1 27.2 36.1C22.4 36.1 18 34.6 15 31.6C12.2 28.8 10.7 26.5 10.7 24.1C10.7 21.6 12.2 19.3 15 16.5Z" fill="#F4A623"/>
  <text x="58" y="21" fill="#F8FAFC" font-family="'IBM Plex Sans', sans-serif" font-size="13" font-weight="600">CBL Foods</text>
  <text x="58" y="35" fill="#94A3B8" font-family="'IBM Plex Sans Condensed', sans-serif" font-size="10" letter-spacing="1.1">DISTRIBUTION ERP</text>
</svg>
